<?xml version="1.0" encoding="utf-8" standalone="no"?><!-- Generator: Adobe Illustrator 15.1.0, SVG Export Plug-In . SVG Version: 6.00 Build 0)  --><svg xmlns="http://www.w3.org/2000/svg" xmlns:xlink="http://www.w3.org/1999/xlink" enable-background="new 0 0 500 500" fill="#000000" height="500px" id="Layer_1" version="1.1" viewBox="0 0 500 500" width="500px" x="0px" xml:space="preserve" y="0px">
<g id="change1">
	<circle cx="250" cy="250" fill="#bc1823" r="250"/>
</g>
<g id="change2">
	<path d="M255.876,170.902c-45.156,0-81.894,35.959-81.894,80.159c0,44.201,36.738,80.162,81.894,80.162   c45.158,0,81.896-35.961,81.896-80.162C337.772,206.861,301.034,170.902,255.876,170.902z M255.876,310.882   c-33.942,0-61.557-26.835-61.557-59.82c0-32.984,27.615-59.82,61.557-59.82c33.944,0,61.56,26.836,61.56,59.82   C317.436,284.047,289.82,310.882,255.876,310.882z" fill="#efefef"/>
	<path d="M255.767,163.346c4.892,0,8.87-3.98,8.87-8.874v-35.503c0-4.893-3.979-8.874-8.87-8.874   c-4.894,0-8.875,3.98-8.875,8.874v35.503C246.891,159.365,250.873,163.346,255.767,163.346z" fill="#efefef"/>
	<path d="M211.425,162.96c1.212,3.631,4.595,6.07,8.418,6.07c0.939,0,1.877-0.151,2.807-0.457   c4.638-1.546,7.156-6.578,5.613-11.222l-11.217-33.676c-1.21-3.632-4.59-6.071-8.409-6.071c-0.956,0-1.903,0.155-2.809,0.458   c-2.25,0.749-4.074,2.33-5.134,4.45c-1.06,2.12-1.23,4.525-0.481,6.772L211.425,162.96z" fill="#efefef"/>
	<path d="M183.12,181.386c1.693,2.171,4.245,3.415,7,3.415c2,0,3.887-0.649,5.452-1.874   c1.871-1.456,3.061-3.555,3.353-5.908c0.291-2.354-0.352-4.679-1.81-6.544l-21.811-27.98c-1.692-2.173-4.245-3.419-7.002-3.419   c-1.964,0-3.9,0.666-5.451,1.875c-3.857,3.008-4.55,8.595-1.543,12.454L183.12,181.386z" fill="#efefef"/>
	<path d="M133.693,189.252l30.354,18.337c1.384,0.836,2.968,1.277,4.582,1.277c3.129,0,5.969-1.599,7.603-4.287   c2.525-4.186,1.176-9.649-3.009-12.181l-30.351-18.336c-1.385-0.837-2.97-1.28-4.584-1.28c-3.091,0-6.003,1.642-7.597,4.281   c-1.228,2.028-1.592,4.415-1.024,6.718C130.234,186.083,131.664,188.025,133.693,189.252z" fill="#efefef"/>
	<path d="M120.804,234.085l34.983,5.775c0.483,0.078,0.969,0.118,1.445,0.118c4.355,0,8.034-3.122,8.747-7.426   c0.387-2.339-0.16-4.688-1.54-6.615c-1.381-1.928-3.43-3.202-5.767-3.586l-34.951-5.771c-0.499-0.086-1.007-0.13-1.51-0.13   c-4.341,0-8.007,3.127-8.716,7.437C112.701,228.712,115.98,233.287,120.804,234.085z" fill="#efefef"/>
	<path d="M165.296,271.627c1.312-1.973,1.777-4.339,1.31-6.663c-0.83-4.127-4.494-7.122-8.712-7.122   c-0.577,0-1.158,0.057-1.738,0.171l-34.74,6.985c-4.794,0.964-7.911,5.652-6.947,10.452c0.833,4.126,4.488,7.121,8.691,7.121   c0.574,0,1.159-0.058,1.758-0.174l34.739-6.985C161.982,274.945,163.984,273.601,165.296,271.627z" fill="#efefef"/>
	<path d="M177.852,293.872c-1.598-2.643-4.51-4.284-7.601-4.284c-1.613,0-3.196,0.441-4.58,1.277l-30.318,18.324   c-4.185,2.534-5.532,8-3.007,12.177c1.594,2.647,4.508,4.293,7.604,4.293c1.609,0,3.193-0.443,4.583-1.281l30.311-18.319   C179.032,303.531,180.382,298.064,177.852,293.872z" fill="#efefef"/>
	<path d="M197.822,317.03c-1.587-1.313-3.595-2.035-5.652-2.035c-2.654,0-5.146,1.17-6.841,3.214l-22.574,27.277   c-3.115,3.772-2.584,9.377,1.175,12.485c1.584,1.318,3.594,2.045,5.66,2.045c2.655,0,5.147-1.171,6.839-3.213l22.574-27.28   C202.119,325.754,201.59,320.15,197.822,317.03z" fill="#efefef"/>
	<path d="M224.446,332.352c-0.982-0.358-2.008-0.54-3.048-0.54c-3.708,0-7.056,2.339-8.331,5.818l-12.182,33.228   c-1.682,4.596,0.686,9.703,5.272,11.382c0.988,0.365,2.018,0.549,3.061,0.549c3.707,0,7.054-2.34,8.331-5.822l12.179-33.231   c0.815-2.224,0.715-4.632-0.281-6.782C228.451,334.801,226.676,333.167,224.446,332.352z" fill="#efefef"/>
	<path d="M255.823,337.884c-2.369,0-4.597,0.923-6.271,2.601c-1.676,1.678-2.598,3.908-2.596,6.277l0.02,35.379   c0.005,4.889,3.986,8.867,8.873,8.867h0.003c0.002,0,0.003,0,0.005,0c4.889-0.007,8.865-3.989,8.865-8.88l-0.022-35.378   C264.693,341.861,260.713,337.884,255.823,337.884z" fill="#efefef"/>
	<path d="M298.572,337.598c-1.276-3.478-4.625-5.814-8.334-5.814c-1.042,0-2.069,0.183-3.061,0.545   c-2.224,0.821-3.995,2.457-4.988,4.606c-0.995,2.153-1.091,4.564-0.271,6.783l12.213,33.188c1.277,3.479,4.624,5.815,8.327,5.815   c1.031,0,2.058-0.183,3.064-0.549c2.223-0.819,3.995-2.454,4.989-4.605c0.995-2.152,1.092-4.562,0.272-6.786L298.572,337.598z" fill="#efefef"/>
	<path d="M326.296,318.142c-1.691-2.032-4.179-3.198-6.825-3.198c-2.061,0-4.071,0.724-5.667,2.043   c-3.759,3.118-4.282,8.722-1.162,12.495l22.568,27.203c1.691,2.041,4.181,3.211,6.831,3.211c2.065,0,4.078-0.728,5.663-2.045   c1.824-1.512,2.95-3.645,3.17-6.005c0.221-2.359-0.492-4.663-2.005-6.489L326.296,318.142z" fill="#efefef"/>
	<path d="M376.208,309.026l-30.267-18.24c-1.382-0.833-2.962-1.272-4.57-1.272c-3.094,0-6.007,1.645-7.6,4.287   c-1.227,2.028-1.589,4.412-1.021,6.712c0.569,2.305,2.004,4.248,4.038,5.475l30.265,18.242c1.383,0.831,2.964,1.271,4.571,1.271   c3.09,0,6.002-1.644,7.6-4.29c1.225-2.03,1.586-4.417,1.016-6.718S378.238,310.251,376.208,309.026z" fill="#efefef"/>
	<path d="M390.075,264.829l-34.638-6.923c-0.572-0.114-1.157-0.172-1.738-0.172c-4.217,0-7.876,3.001-8.699,7.135   c-0.958,4.796,2.166,9.479,6.962,10.438l34.681,6.932c0.578,0.108,1.149,0.163,1.698,0.163c4.215,0,7.872-3.001,8.695-7.13   c0.468-2.326,0-4.694-1.316-6.668C394.403,266.631,392.396,265.29,390.075,264.829z" fill="#efefef"/>
	<path d="M347.146,225.799c-1.383,1.928-1.93,4.279-1.542,6.62c0.713,4.302,4.392,7.424,8.747,7.424   c0.484,0,0.974-0.04,1.456-0.12l34.833-5.773c4.822-0.804,8.096-5.383,7.297-10.207c-0.711-4.299-4.389-7.419-8.744-7.419   c-0.488,0-0.98,0.041-1.458,0.12l-34.825,5.772C350.573,222.601,348.526,223.873,347.146,225.799z" fill="#efefef"/>
	<path d="M335.337,204.349c1.596,2.648,4.511,4.295,7.606,4.295c1.612,0,3.195-0.442,4.575-1.275l30.229-18.212   c4.189-2.527,5.542-7.99,3.02-12.174c-1.594-2.652-4.508-4.299-7.604-4.299c-1.612,0-3.196,0.441-4.576,1.275l-30.23,18.212   C334.171,194.696,332.815,200.158,335.337,204.349z" fill="#efefef"/>
	<path d="M315.989,182.582c1.576,1.234,3.467,1.887,5.47,1.887c2.74,0,5.286-1.237,6.986-3.401l21.751-27.773   c3.012-3.851,2.335-9.438-1.512-12.457c-1.555-1.218-3.497-1.889-5.469-1.889c-2.746,0-5.293,1.239-6.991,3.402l-21.75,27.774   C311.46,173.978,312.14,179.565,315.989,182.582z" fill="#efefef"/>
	<path d="M288.947,168.151c0.909,0.303,1.856,0.456,2.814,0.456c3.818,0,7.198-2.434,8.411-6.056l11.205-33.435   c1.553-4.638-0.957-9.677-5.603-11.237c-0.91-0.303-1.856-0.456-2.811-0.456c-3.816,0-7.198,2.432-8.417,6.056l-11.203,33.439   C281.794,161.559,284.305,166.597,288.947,168.151z" fill="#efefef"/>
</g>
</svg>